<svg fill="none" height="24" viewBox="0 0 8 24" width="8" xmlns="http://www.w3.org/2000/svg"><path d="m4.07273 10.542c.12133-.028.238-.0513.35-.07s.22866-.028.35-.028c.46666 0 .87733.084 1.232.252.364.168.658.3967.882.686.23333.2893.39666.6347.49 1.036.10266.392.12133.812.056 1.26-.07467.5133-.238.98-.49 1.4-.24267.4107-.55067.7653-.924 1.064-.37334.2987-.798.532-1.274.7-.476.1587-.97067.238-1.484.238-.52267 0-.99867-.0793-1.428-.238-.42-.168-.77934-.4013-1.078003-.7-.289333-.2987-.499333-.6533-.63-1.064-.13066639-.42-.1586664-.8867-.0839997-1.4.0466666-.3547.1213337-.6767.2239997-.966.112-.2987.238-.5787.378-.84.149334-.2613.312667-.5087.490003-.742.17733-.2427.364-.49.56-.742l2.646-3.388h2.562zm1.274 3.052c.06533-.448-.03267-.8167-.294-1.106-.26134-.2987-.62534-.448-1.092-.448-.476 0-.882.1493-1.218.448-.32667.2893-.52267.658-.588 1.106-.06534.448.028.8213.28 1.12.26133.2893.62533.434 1.092.434.476 0 .882-.1447 1.218-.434.336-.2987.53666-.672.602-1.12z" fill="#fff"/></svg>