<?xml version="1.0" encoding="UTF-8"?>
<svg width="19px" height="24px" viewBox="0 0 19 24" version="1.1" xmlns="http://www.w3.org/2000/svg" xmlns:xlink="http://www.w3.org/1999/xlink">
    <!-- Generator: Sketch 48.1 (47250) - http://www.bohemiancoding.com/sketch -->
    <title>2</title>
    <desc>Created with Sketch.</desc>
    <defs>
        <linearGradient x1="50%" y1="0%" x2="50%" y2="100%" id="linearGradient-1">
            <stop stop-color="#FFF700" offset="0%"></stop>
            <stop stop-color="#FFCE5B" offset="100%"></stop>
        </linearGradient>
    </defs>
    <g id="Symbols" stroke="none" stroke-width="1" fill="none" fill-rule="evenodd">
        <g id="2">
            <path d="M16.9408289,16.920904 L18.1322712,16.9210781 L17.0572982,23 L0,23 L0,21.1251888 L0.330876125,20.8272489 L9.29847613,12.7525142 C11.3849221,10.8061368 12.0101699,9.87260623 12.0101699,9.11864407 C12.0101699,8.58471007 11.7668956,8.32956685 11.0257645,8.32956685 C9.98408057,8.32956685 9.29144669,8.84349327 8.78729357,10.1860517 L8.47963797,11.0053378 L1.906407,9.48876028 L2.25056108,8.44694809 C3.67381927,4.13850651 7.0080068,2 11.242164,2 C15.9716595,2 19.2636184,4.86590739 18.9833804,8.83137461 C18.8196818,11.1477678 16.9934574,13.8110914 13.5378719,16.9205065 C14.4452315,16.9205726 15.5795487,16.9207051 16.9408289,16.920904 Z" id="Path" fill="#BC6E2D" fill-rule="nonzero"></path>
            <path d="M10.817517,17.920904 C10.8221229,17.9203082 12.86308,17.9203082 16.9403885,17.920904 L16.2191039,22 L1,22 L1,21.5706215 L9.9799926,13.4839925 C12.3962958,11.2297552 13.0093877,10.1563089 13.0093877,9.11864407 C13.0093877,8.18832392 12.4684243,7.32956685 11.0258552,7.32956685 C9.65541455,7.32956685 8.5374235,8.0094162 7.85220318,9.83427495 L3.19991786,8.76082863 C4.60642273,4.50282486 7.88826741,3 11.2422406,3 C15.4978194,3 18.2181504,5.47915682 17.9862511,8.76082863 C17.8178753,11.1435605 15.4282973,14.1969189 10.817517,17.920904 Z" id="Path" fill="url(#linearGradient-1)"></path>
        </g>
    </g>
</svg>